<svg xmlns="http://www.w3.org/2000/svg" version="1.1" xmlns:xlink="http://www.w3.org/1999/xlink" xmlns:svgjs="http://svgjs.dev/svgjs" width="1000" height="1125" viewBox="0 0 1000 1125"><g transform="matrix(1,0,0,1,1.7053025658242404e-13,0)"><svg viewBox="0 0 320 360" data-background-color="#ffffff" preserveAspectRatio="xMidYMid meet" height="1125" width="1000" xmlns="http://www.w3.org/2000/svg" xmlns:xlink="http://www.w3.org/1999/xlink"><g id="tight-bounds" transform="matrix(1,0,0,1,0,0)"><svg viewBox="0 0 320 360" height="360" width="320"><g><svg></svg></g><g><svg viewBox="0 0 320 360" height="360" width="320"><g><path xmlns="http://www.w3.org/2000/svg" d="M20.961 227.22l3.726 4.658-1.863-6.056c-0.466-2.795-3.726 0.466-1.863 1.398M25.153 224.425c1.397 2.329 2.795 4.658 2.795 6.987 0 3.261 2.795 4.658 5.123 5.589-3.261-3.726-5.124-13.974-7.918-12.576M204.017 26.929c7.918 0 15.371-0.932 23.756 0.931 20.495 5.124 37.729 15.371 49.374 29.811l32.606 52.169c1.397 13.042 4.192 27.482 3.726 43.319 3.261 0 2.795-4.658 6.521-5.59-3.726 9.316-5.59 20.961-6.521 34.469-2.329-7.453 0-18.632 0.466-24.687-3.261 5.124-5.124 1.397-5.124-0.932 0.466-3.726-1.397-3.261-2.795-4.658-5.124-4.658-8.384-9.782-12.11-17.7 2.329-6.055 2.795-14.905-4.658-19.563-2.329-1.397-5.124-3.726-6.521-7.453-1.863-5.124-5.124-11.179-4.193-19.097 0.466-2.329-6.987 5.124-11.179 1.863-18.166-12.576-36.332-27.016-58.224-39.127-11.645 0-20.029-4.192-24.221-9.316-3.726-4.658-0.932-10.713 4.658-11.179 3.261 0 6.987-0.932 9.782 0.932 0.466-1.863 2.329-4.192 4.657-4.192M157.904 16.215l0.932 0.466c4.658 0.932 6.987 7.453 12.11 5.124 0 3.261 0.466 6.521-0.466 8.85-1.397 3.726-5.59 3.726-8.85 3.726-31.208-1.863-49.374 11.179-68.471 22.358-5.124 3.261-10.713 5.59-14.906 9.782-20.029 18.632-41.921 35.866-47.045 70.335l-4.192 38.195c-0.466 4.192-5.124 8.384-4.192 13.508l3.26 22.824c-3.261-3.261-5.124 0.932-4.192 2.795 0.466 1.397 2.329 6.055 5.124 1.863 3.726 6.987 7.453 20.495 12.576 26.55 15.837 18.632 36.332 35.4 53.101 52.169 4.192-0.932 7.453-0.932 8.384-3.727 1.397 2.795-1.397 5.59-3.726 6.056 7.453 4.658 15.837 8.85 27.016 9.781 14.44 0.932 27.948 3.261 40.524 6.522 6.521-1.863 13.042-2.795 20.029-3.261 2.329 0 3.726-3.726 6.521-4.658l0.466-4.658c2.795 4.192 2.329-1.397 0.466-4.192 3.261 2.795 4.192 5.124 5.589 6.987 0-1.397 3.726-6.521 3.727-0.466l0.931-6.055c1.397-0.932 1.863 5.124 3.261 0.931 1.397-4.192 4.192-0.932 6.987-2.329-0.932 1.863-0.466 5.59 2.794 3.261l3.727-3.261c2.329 5.59 6.055 3.261 7.918 2.329 20.495-13.042 40.99-28.413 60.553-43.784l-0.466 6.055 2.329-7.453c2.329 2.329 4.192 0.466 5.124-0.931 2.795-4.658 6.521-9.316 12.577-13.508-7.453 20.029-16.303 35.866-27.482 48.908l-4.658 5.59c0 3.261-0.932 7.453-4.658 7.918-1.863 0.466-5.59-0.932-8.384 1.863-1.397 1.863 3.261 5.59-0.466 2.795-3.261-2.329-6.521 0-10.248 0.932-2.795 0.932 1.863 3.726 2.795 5.589 0.932 1.863 1.863 3.726 1.398 6.056l-5.124-5.59c-6.055 3.261-9.782 9.316-14.906 13.974-2.329 1.863-1.397 5.124-1.397 7.918-3.261 0-6.987-0.932-8.85 0.932-1.397 1.863-0.932 4.658-0.932 7.453-4.658-0.466-5.124-7.453-9.315-6.056-4.192 0.932-8.85 1.397-12.577 3.727 2.795 5.59-4.658 2.329-3.726 3.26-6.987-4.192-13.042-7.453-20.495-4.658-15.837-5.124-35.4-2.795-49.84-0.931 0-2.329 0.466-4.658-0.466-5.124-0.932 2.329-3.726 1.397-3.26 1.397-8.85-6.055-17.7-9.782-27.016-14.905-8.384 0.932-16.303-3.261-18.632-5.59-6.521-6.055-13.974-2.795-20.029-4.192-13.042-3.261-17.7-16.769-19.098-26.084-0.932-4.658-4.658-6.521-6.055-6.056-6.055-19.563-15.371-37.263-22.824-55.429-1.863-4.658-1.397-9.316-1.397-14.44 2.329 0.932 4.658 0.466 4.192-2.794-2.329-15.371-7.918-27.016-13.974-38.195 3.261-15.837 3.726-34.469 11.179-48.443 6.521-12.576 18.632-19.098 27.016-29.811 2.795-3.726 2.795-8.85 5.59-12.11 9.316-9.316 18.632-19.098 28.879-27.482 4.658-3.726 10.247 0 17.234-1.397 2.329-8.384 11.645-15.837 20.495-13.508 3.726 0.932 11.179-8.85 13.508-9.782 3.726-1.397 1.863 3.726 1.863 6.987 8.85-6.987 20.961-10.713 32.14-14.906" fill="#fce44d" fill-rule="nonzero" stroke="none" stroke-width="1" stroke-linecap="butt" stroke-linejoin="miter" stroke-miterlimit="10" stroke-dasharray="" stroke-dashoffset="0" font-family="none" font-weight="none" font-size="none" text-anchor="none" style="mix-blend-mode: normal" data-fill-palette-color="tertiary"></path></g><g transform="matrix(1,0,0,1,64,154.1407786079434)"><svg viewBox="0 0 192 51.71844278411325" height="51.71844278411325" width="192"><g><svg viewBox="0 0 192 51.71844278411325" height="51.71844278411325" width="192"><g><svg viewBox="0 0 192 51.71844278411325" height="51.71844278411325" width="192"><g><svg viewBox="0 0 192 51.71844278411325" height="51.71844278411325" width="192"><g><svg viewBox="0 0 192 51.71844278411325" height="51.71844278411325" width="192"><g><svg viewBox="0 0 192 51.71844278411325" height="51.71844278411325" width="192"><g transform="matrix(1,0,0,1,0,0)"><svg width="192" viewBox="1 -34.099998474121094 127.13999938964844 34.25" height="51.71844278411325" data-palette-color="#fce44d"><path d="M18.4-34.1L18.4-34.1 30.05-7.75Q31-5.65 31.6-4.58 32.2-3.5 32.77-3.1 33.35-2.7 34.05-2.55L34.05-2.55Q34.25-1.9 34.33-1.28 34.4-0.65 34.4 0.15L34.4 0.15Q33.75 0.1 32.52 0.08 31.3 0.05 30.05 0.03 28.8 0 28 0L28 0Q27.4 0 26.48 0.03 25.55 0.05 24.55 0.08 23.55 0.1 22.7 0.13 21.85 0.15 21.35 0.15L21.35 0.15Q21.35-0.7 21.43-1.35 21.5-2 21.7-2.55L21.7-2.55Q23.65-2.85 24-3.58 24.35-4.3 23.45-6.45L23.45-6.45 17.55-20.1Q16.65-22.1 16.05-23.78 15.45-25.45 14.85-27.45L14.85-27.45 15.65-27.45Q15.05-25.4 14.45-23.65 13.85-21.9 13.15-20.15L13.15-20.15 8.25-7.45Q7.4-5.1 7.8-3.93 8.2-2.75 10.1-2.55L10.1-2.55Q10.3-2 10.38-1.33 10.45-0.65 10.45 0.15L10.45 0.15Q9.9 0.1 9.03 0.08 8.15 0.05 7.18 0.03 6.2 0 5.35 0L5.35 0Q4.1 0 2.9 0.05 1.7 0.1 1 0.15L1 0.15Q1-0.55 1.07-1.23 1.15-1.9 1.4-2.55L1.4-2.55Q2.25-2.7 2.85-3.2 3.45-3.7 4.05-4.8 4.65-5.9 5.4-7.8L5.4-7.8 15.85-33.85Q16.5-34 17.05-34.05 17.6-34.1 18.4-34.1ZM9.1-12.7L21.75-12.7 22.4-10.15Q19.05-10.15 15.33-10.08 11.6-10 8.3-9.8L8.3-9.8 9.1-12.7ZM52.25-2.75L52.7-2.75Q55.15-2.75 56.62-3.38 58.1-4 59.05-5.43 60-6.85 60.75-9.2L60.75-9.2Q61.75-9 62.55-8.68 63.35-8.35 63.85-7.85L63.85-7.85Q63.3-6.15 62.92-4.03 62.55-1.9 62.3 0.1L62.3 0.1Q61.2 0.05 59.4 0.05 57.6 0.05 55.52 0.03 53.45 0 51.55 0L51.55 0Q50.15 0 48.2 0 46.25 0 44.2 0.03 42.15 0.05 40.42 0.08 38.7 0.1 37.8 0.15L37.8 0.15Q37.8-0.7 37.85-1.38 37.9-2.05 38.1-2.55L38.1-2.55Q39.45-2.65 40.17-3.08 40.9-3.5 41.2-4.58 41.5-5.65 41.5-7.7L41.5-7.7 41.5-26.5Q41.5-28.4 41.22-29.35 40.95-30.3 40.2-30.73 39.45-31.15 38.1-31.25L38.1-31.25Q37.95-31.75 37.87-32.52 37.8-33.3 37.8-33.95L37.8-33.95Q39-33.9 40.17-33.88 41.35-33.85 42.5-33.83 43.65-33.8 44.7-33.8L44.7-33.8Q45.85-33.8 47.05-33.83 48.25-33.85 49.42-33.88 50.6-33.9 51.6-33.95L51.6-33.95Q51.6-33.2 51.55-32.48 51.5-31.75 51.3-31.25L51.3-31.25Q50-31.15 49.25-30.75 48.5-30.35 48.2-29.35 47.9-28.35 47.9-26.4L47.9-26.4 47.9-7.75Q47.9-5.75 48.25-4.67 48.6-3.6 49.55-3.18 50.5-2.75 52.25-2.75L52.25-2.75ZM67.1-33.95L67.1-33.95Q68-33.9 69.32-33.88 70.65-33.85 72.12-33.83 73.6-33.8 74.95-33.8 76.3-33.8 77.2-33.8L77.2-33.8 77.2-7.75Q77.2-5.75 77.55-4.67 77.9-3.6 78.85-3.18 79.8-2.75 81.55-2.75L81.55-2.75 80.85 0Q79.45 0 77.5 0 75.55 0 73.5 0.03 71.45 0.05 69.72 0.08 68 0.1 67.1 0.15L67.1 0.15Q67.1-0.7 67.15-1.38 67.2-2.05 67.4-2.55L67.4-2.55Q68.75-2.65 69.47-3.08 70.2-3.5 70.5-4.58 70.8-5.65 70.8-7.7L70.8-7.7 70.8-26.5Q70.8-28.4 70.5-29.35 70.2-30.3 69.47-30.73 68.75-31.15 67.35-31.25L67.35-31.25Q67.2-31.75 67.15-32.52 67.1-33.3 67.1-33.95ZM90.7-9.2L90.7-9.2Q91.75-9 92.55-8.68 93.35-8.35 93.85-7.85L93.85-7.85Q93.3-6.15 92.92-4.03 92.55-1.9 92.3 0.1L92.3 0.1Q91.2 0.05 89.35 0.05 87.5 0.05 85.3 0.03 83.1 0 80.85 0L80.85 0 81.55-2.75 82-2.75Q85-2.75 86.62-3.45 88.25-4.15 89.15-5.6 90.05-7.05 90.7-9.2ZM87.45-22.6L87.45-22.6Q87.4-21.4 87.35-19.98 87.3-18.55 87.3-17.05L87.3-17.05Q87.3-15.5 87.35-13.95 87.4-12.4 87.45-11.2L87.45-11.2Q86.55-11.2 85.85-11.25 85.15-11.3 84.5-11.5L84.5-11.5Q84.3-13.95 83.22-14.8 82.15-15.65 79.35-15.65L79.35-15.65 76-15.65 76-18.3 79.35-18.3Q82.25-18.3 83.3-19.1 84.35-19.9 84.4-22.2L84.4-22.2Q85.1-22.45 85.87-22.53 86.65-22.6 87.45-22.6ZM91-33.95L91-33.95Q91.1-32.8 91.25-31.28 91.4-29.75 91.6-28.3 91.8-26.85 92.05-25.75L92.05-25.75Q91.5-25.4 90.72-25.23 89.95-25.05 88.9-25.05L88.9-25.05Q88.75-26.65 88.05-28.08 87.35-29.5 85.75-30.38 84.15-31.25 81.15-31.25L81.15-31.25 75.75-31.25 77.05-33.8Q80.9-33.8 83.65-33.83 86.4-33.85 88.2-33.9 90-33.95 91-33.95ZM128.14 0.15L128.14 0.15Q127.44 0.1 126.19 0.08 124.94 0.05 123.57 0.03 122.19 0 120.99 0L120.99 0Q119.79 0 118.47 0.03 117.14 0.05 115.97 0.05 114.79 0.05 114.04 0.1L114.04 0.1Q114.04-0.55 114.09-1.23 114.14-1.9 114.29-2.55L114.29-2.55Q115.54-2.7 116.07-3.1 116.59-3.5 116.24-4.7 115.89-5.9 114.39-8.4L114.39-8.4Q112.94-10.9 111.17-13.73 109.39-16.55 107.52-19.53 105.64-22.5 103.69-25.4L103.69-25.4Q102.39-27.35 101.62-28.45 100.84-29.55 100.32-30.1 99.79-30.65 99.32-30.85 98.84-31.05 98.19-31.2L98.19-31.2Q97.94-31.9 97.89-32.58 97.84-33.25 97.84-33.95L97.84-33.95Q98.74-33.9 100.07-33.88 101.39-33.85 102.79-33.83 104.19-33.8 105.29-33.8L105.29-33.8Q107.04-33.8 108.84-33.83 110.64-33.85 111.79-33.9L111.79-33.9Q111.79-33.3 111.72-32.63 111.64-31.95 111.54-31.25L111.54-31.25Q110.24-31 109.69-30.53 109.14-30.05 109.44-29.03 109.74-28 110.99-26.1L110.99-26.1Q112.89-23.15 114.79-20.2 116.69-17.25 118.42-14.45 120.14-11.65 121.54-9.2L121.54-9.2Q122.79-7.15 123.67-5.88 124.54-4.6 125.19-3.93 125.84-3.25 126.47-2.98 127.09-2.7 127.79-2.55L127.79-2.55Q127.99-2 128.07-1.3 128.14-0.6 128.14 0.15ZM97.14 0.15L97.14 0.15Q97.14-0.5 97.19-1.3 97.24-2.1 97.49-2.65L97.49-2.65Q98.99-3.05 100.54-4.23 102.09-5.4 103.99-8.1L103.99-8.1 110.04-16.7 112.04-14.75 107.74-8.45Q106.39-6.4 105.94-5.23 105.49-4.05 106.04-3.45 106.59-2.85 108.14-2.55L108.14-2.55Q108.29-1.9 108.34-1.23 108.39-0.55 108.39 0.15L108.39 0.15Q107.14 0.05 105.59 0.03 104.04 0 102.64 0L102.64 0Q101.69 0 100.69 0.03 99.69 0.05 98.77 0.08 97.84 0.1 97.14 0.15ZM121.19-25.6L115.14-16.4 113.09-18.45 117.59-25.45Q119.54-28.6 119.37-29.78 119.19-30.95 117.09-31.25L117.09-31.25Q116.94-31.9 116.89-32.63 116.84-33.35 116.84-33.95L116.84-33.95Q117.69-33.9 118.64-33.88 119.59-33.85 120.57-33.83 121.54-33.8 122.29-33.8L122.29-33.8Q123.04-33.8 124.02-33.83 124.99-33.85 125.92-33.88 126.84-33.9 127.44-33.95L127.44-33.95Q127.44-33.25 127.42-32.58 127.39-31.9 127.19-31.25L127.19-31.25Q126.19-30.95 125.37-30.48 124.54-30 123.59-28.9 122.64-27.8 121.19-25.6L121.19-25.6Z" opacity="1" transform="matrix(1,0,0,1,0,0)" fill="#fce44d" class="undefined-text-0" data-fill-palette-color="primary" id="text-0"></path></svg></g></svg></g></svg></g></svg></g><g></g></svg></g></svg></g></svg></g></svg></g><defs></defs></svg><rect width="320" height="360" fill="none" stroke="none" visibility="hidden"></rect></g></svg></g></svg>